<?xml version="1.0" encoding="UTF-8"?>
<svg id="Calque_1" data-name="Calque 1" xmlns="http://www.w3.org/2000/svg" viewBox="0 0 375.41 299.14">
  <defs>
    <style>
      .cls-1 {
        letter-spacing: 0em;
      }

      .cls-2, .cls-3 {
        fill: #15265e;
      }

      .cls-4 {
        letter-spacing: 0em;
      }

      .cls-5 {
        fill: #44a2d0;
      }

      .cls-3 {
        font-family: FiraSans-Regular, 'Fira Sans';
        font-size: 52.78px;
      }

      .cls-6 {
        letter-spacing: 0em;
      }

      .cls-7 {
        letter-spacing: 0em;
      }
    </style>
  </defs>
  <path class="cls-2" d="m166,5.61c28.15-3.35,54.11,2.89,77.97,17.3,54.9,33.17,77.85,99.73,56.23,160.24-1.98,5.53-1.66,13.07.4,18.64,9.69,26.21,21.27,51.56,46.72,66.67,8.89,5.28,18.7,9.02,28.1,13.45-13.87,4.29-54.99-7.47-67.41-21.71-12.16-13.95-23.77-28.83-32.87-44.87-9.77-17.21-15.85-36.48-24.43-54.42-13.88-29.02-35.24-50.25-66.41-60.53-1.37-.45-2.62-1.29-4.52-2.25,30.62-7.19,67.84,12.86,101.37,54.69,7.8-38.07-.04-71.5-23.18-100.74-23.19-29.3-54.85-43.49-91.97-46.46Z"/>
  <path class="cls-2" d="m282.04,299.14c-26.31-.37-50.69-7.26-70.78-24.97-6.34-5.59-11.87-6.52-19.83-5.2-80.99,13.4-154.32-49.12-154.38-131.3,0-4.1.51-8.2,1.91-12.53,2.73,46.71,22.27,83.22,63.18,106.6,26.08,14.9,54.09,18.63,86.82,11.32-16-30.9-30.26-61.03-46.93-89.76-12.07-20.79-33.71-30.47-55.64-40.46,3.02.11,6.05.13,9.07.36,49.52,3.73,82.46,29.24,100.36,75.38,8.31,21.43,16.77,42.96,27.3,63.34,11.52,22.29,24.96,31.33,58.92,47.22Z"/>
  <path class="cls-5" d="m130.36,106.24c45.19.62,81.68,16.35,101.95,58.92,7.86,16.5,14.42,33.65,20.99,50.73,13.48,35.06,33.79,63.17,72.25,73.63.51.14.77,1.18,1.82,2.91-39.9-2.48-72.76-15.93-92.74-51.74-8.13-14.57-14.93-29.98-21.15-45.49-16.22-40.41-38.15-75.14-83.11-88.96Z"/>
  <text class="cls-3" transform="translate(103.35 44.57)"><tspan x="0" y="0">Air</tspan></text>
  <text class="cls-3" transform="translate(0 93.55)"><tspan x="0" y="0">Qu</tspan><tspan class="cls-4" x="67.18" y="0">a</tspan><tspan class="cls-7" x="95.36" y="0">li</tspan><tspan class="cls-1" x="125.71" y="0">t</tspan><tspan class="cls-6" x="144.5" y="0">y</tspan></text>
</svg>