<?xml version="1.0" encoding="UTF-8"?>
<svg id="Calque_1" data-name="Calque 1" xmlns="http://www.w3.org/2000/svg" viewBox="0 0 288.11 229.58">
  <defs>
    <style>
      .cls-1, .cls-2 {
        fill: #fff;
      }

      .cls-2 {
        font-family: FiraSans-Regular, 'Fira Sans';
        font-size: 40.5px;
      }

      .cls-3 {
        fill: #44a2d0;
      }

      .cls-4 {
        letter-spacing: 0em;
      }

      .cls-5 {
        letter-spacing: 0em;
      }
    </style>
  </defs>
  <path class="cls-1" d="m127.39,4.31c21.6-2.57,41.52,2.22,59.84,13.28,42.14,25.46,59.75,76.54,43.15,122.98-1.52,4.24-1.28,10.03.3,14.3,7.44,20.11,16.32,39.57,35.86,51.16,6.83,4.05,14.35,6.92,21.57,10.32-10.64,3.29-42.2-5.73-51.74-16.67-9.33-10.7-18.24-22.13-25.23-34.43-7.5-13.21-12.16-28-18.75-41.77-10.65-22.27-27.04-38.57-50.96-46.46-1.05-.35-2.01-.99-3.47-1.73,23.5-5.52,52.07,9.87,77.8,41.98,5.99-29.22-.03-54.88-17.79-77.31C180.18,17.48,155.88,6.58,127.39,4.31Z"/>
  <path class="cls-1" d="m216.45,229.58c-20.19-.29-38.9-5.57-54.32-19.17-4.87-4.29-9.11-5-15.22-3.99-62.16,10.28-118.43-37.7-118.48-100.77,0-3.15.39-6.29,1.47-9.62,2.1,35.85,17.09,63.87,48.49,81.81,20.01,11.44,41.52,14.3,66.63,8.69-12.28-23.72-23.22-46.84-36.02-68.89-9.26-15.95-25.88-23.38-42.7-31.05,2.32.09,4.65.1,6.96.28,38,2.86,63.29,22.44,77.02,57.85,6.38,16.45,12.87,32.97,20.95,48.61,8.84,17.11,19.15,24.04,45.22,36.24Z"/>
  <path class="cls-3" d="m100.04,81.54c34.68.48,62.69,12.55,78.24,45.22,6.03,12.66,11.07,25.83,16.11,38.93,10.34,26.9,25.93,48.48,55.45,56.51.39.11.59.91,1.4,2.24-30.62-1.9-55.84-12.23-71.17-39.71-6.24-11.18-11.46-23.01-16.23-34.91-12.45-31.02-29.28-57.66-63.79-68.28Z"/>
  <text class="cls-2" transform="translate(79.31 34.21)"><tspan x="0" y="0">Air</tspan></text>
  <text class="cls-2" transform="translate(0 71.79)"><tspan x="0" y="0">Qu</tspan><tspan class="cls-4" x="51.56" y="0">a</tspan><tspan x="73.19" y="0">li</tspan><tspan class="cls-5" x="96.48" y="0">t</tspan><tspan x="110.9" y="0">y</tspan></text>
</svg>